<svg width="600" height="442" viewBox="0 0 600 442" fill="none" xmlns="http://www.w3.org/2000/svg">
<rect width="600" height="442" rx="170" fill="black"/>
<path d="M390.532 247.254C389.779 254.433 383.279 259.767 376.394 257.603C369.581 255.463 363.137 252.211 357.332 247.953C347.997 241.106 340.648 231.901 336.039 221.28C331.429 210.66 329.724 199.006 331.097 187.51C332.471 176.014 336.874 165.09 343.856 155.855C350.838 146.619 360.149 139.405 370.835 134.95C381.521 130.495 393.199 128.959 404.673 130.499C416.148 132.039 427.007 136.6 436.14 143.715C441.82 148.14 446.705 153.453 450.621 159.424C454.58 165.46 451.219 173.167 444.518 175.848C437.816 178.528 430.341 175.048 425.615 169.592C423.951 167.671 422.098 165.909 420.077 164.334C414.597 160.065 408.081 157.328 401.196 156.404C394.312 155.48 387.305 156.402 380.893 159.075C374.482 161.748 368.895 166.077 364.706 171.618C360.517 177.159 357.875 183.714 357.051 190.611C356.227 197.509 357.25 204.501 360.015 210.873C362.781 217.246 367.19 222.769 372.792 226.877C374.858 228.392 377.058 229.695 379.36 230.773C385.897 233.832 391.284 240.076 390.532 247.254Z" fill="white"/>
<path d="M390.956 194.703C391.708 187.525 398.208 182.191 405.094 184.354C411.906 186.495 418.35 189.746 424.155 194.004C433.49 200.852 440.839 210.057 445.449 220.677C450.058 231.297 451.764 242.952 450.39 254.447C449.016 265.943 444.613 276.868 437.631 286.103C430.649 295.338 421.338 302.552 410.652 307.007C399.966 311.463 388.289 312.999 376.814 311.459C365.339 309.919 354.48 305.358 345.347 298.242C339.668 293.818 334.783 288.504 330.866 282.533C326.908 276.498 330.268 268.79 336.97 266.11C343.671 263.429 351.146 266.91 355.872 272.365C357.536 274.286 359.39 276.048 361.411 277.623C366.891 281.892 373.406 284.629 380.291 285.553C387.176 286.477 394.182 285.555 400.594 282.882C407.006 280.209 412.592 275.881 416.781 270.339C420.971 264.798 423.612 258.244 424.437 251.346C425.261 244.449 424.238 237.456 421.472 231.084C418.706 224.712 414.297 219.189 408.696 215.08C406.63 213.565 404.429 212.262 402.127 211.185C395.59 208.125 390.203 201.882 390.956 194.703Z" fill="white"/>
<rect x="147" y="144" width="30" height="164" rx="15" fill="white"/>
<rect x="142" y="159.489" width="30.0704" height="112.659" rx="15.0352" transform="rotate(-43.4359 142 159.489)" fill="white"/>
<rect x="271" y="144" width="30" height="164" rx="15" fill="white"/>
<rect x="222.255" y="243.573" width="30.7873" height="119.93" rx="15.3936" transform="rotate(-135 222.255 243.573)" fill="white"/>
</svg>