<svg width="54" height="48" viewBox="0 0 54 48" fill="none" xmlns="http://www.w3.org/2000/svg">
<path d="M0 0H38C46.8366 0 54 7.16344 54 16V32C54 40.8366 46.8366 48 38 48H0V0Z" fill="#2FA6FF"/>
<path d="M30.2929 28.2929C29.9024 28.6834 29.9024 29.3166 30.2929 29.7071C30.6834 30.0976 31.3166 30.0976 31.7071 29.7071L36.7071 24.7071C37.0976 24.3166 37.0976 23.6834 36.7071 23.2929L31.7071 18.2929C31.3166 17.9024 30.6834 17.9024 30.2929 18.2929C29.9024 18.6834 29.9024 19.3166 30.2929 19.7071L33.5858 23L19.9444 23C19.4228 23 19 23.4477 19 24C19 24.5523 19.4228 25 19.9444 25L33.5858 25L30.2929 28.2929Z" fill="#F3FAFF"/>
</svg>
