<svg width="45" height="45" viewBox="0 0 45 45" fill="none" xmlns="http://www.w3.org/2000/svg">
<g clip-path="url(#clip0)">
<path d="M34.9943 35.0002V34.9992H35.0003V26.1972C35.0003 21.8912 34.0733 18.5742 29.0393 18.5742C26.6193 18.5742 24.9953 19.9022 24.3323 21.1612H24.2623V18.9762H19.4893V34.9992H24.4593V27.0652C24.4593 24.9762 24.8553 22.9562 27.4423 22.9562C29.9913 22.9562 30.0293 25.3402 30.0293 27.1992V35.0002H34.9943Z" fill="black"/>
<path d="M11.396 18.9771H16.372V35H11.396V18.9771Z" fill="black"/>
<path d="M13.882 11C12.291 11 11 12.291 11 13.882C11 15.473 12.291 16.791 13.882 16.791C15.473 16.791 16.764 15.473 16.764 13.882C16.763 12.291 15.472 11 13.882 11V11Z" fill="black"/>
</g>
<circle cx="22.5" cy="22.5" r="21.5" stroke="black" stroke-width="2"/>
<defs>
<clipPath id="clip0">
<rect width="24" height="24" fill="white" transform="translate(11 11)"/>
</clipPath>
</defs>
</svg>
