<svg width="144" height="144" viewBox="0 0 144 144" fill="none" xmlns="http://www.w3.org/2000/svg">
<circle cx="72" cy="72" r="72" fill="#D5EDFF" fill-opacity="0.76"/>
<path fill-rule="evenodd" clip-rule="evenodd" d="M94.3826 112.938L112.935 94.4079C114.508 92.8366 114.508 90.2631 112.935 88.6919L109.876 85.6416C108.303 84.0701 105.731 84.0701 104.158 85.6416L104.075 85.7193L85.6837 104.089L85.6057 104.171C84.0325 105.743 84.0325 108.311 85.6057 109.883L88.6645 112.938C88.9763 113.249 89.3317 113.502 89.7116 113.692H93.3354C93.7154 113.502 94.066 113.249 94.3826 112.938Z" fill="#092133"/>
<path fill-rule="evenodd" clip-rule="evenodd" d="M50.3571 113.692H53.9809C54.3609 113.502 54.7115 113.249 55.0281 112.938L58.087 109.883C59.6601 108.311 59.6601 105.743 58.087 104.172L58.0041 104.089L39.6125 85.7195L39.5344 85.6418C37.9613 84.0704 35.3847 84.0704 33.8115 85.6418L30.7576 88.6921C29.1843 90.2634 29.1843 92.8369 30.7576 94.4082L49.305 112.938C49.6216 113.249 49.9771 113.502 50.3571 113.692Z" fill="#2FA6FF"/>
<path d="M71.8462 39.1822C72.8021 39.1822 73.5771 38.4072 73.5771 37.4512V29.731C73.5771 28.775 72.8021 28 71.8462 28C70.8902 28 70.1152 28.775 70.1152 29.731V37.4512C70.1154 38.4072 70.8904 39.1822 71.8462 39.1822Z" fill="#092133"/>
<path d="M114.158 87.4662L111.1 84.4169C110.012 83.3305 108.562 82.7321 107.017 82.7321C106.03 82.7321 105.081 82.9778 104.241 83.4383L98.4789 77.6829L98.7595 77.4026C101.097 75.0602 101.096 71.2541 98.7594 68.9197C97.9242 68.083 96.8822 67.5251 95.7462 67.2903C95.9026 66.7504 95.985 66.185 95.985 65.6063C95.985 63.9984 95.3604 62.4907 94.2298 61.3647C93.3945 60.528 92.3526 59.9701 91.2166 59.7353C91.373 59.1955 91.4554 58.6302 91.4554 58.0513C91.4554 56.4433 90.8308 54.9357 89.6983 53.8081C88.843 52.9538 87.7917 52.4131 86.6877 52.183C87.2783 50.1468 86.7737 47.8559 85.1718 46.2512C83.8386 44.9235 82.0291 44.3529 80.2854 44.5378L68.8669 42.3765C67.1254 42.0461 64.9507 41.8277 63.5781 43.0798C63.4915 43.1589 63.4031 43.2498 63.316 43.351C61.1875 42.5752 58.7051 43.0372 57.0005 44.7398C55.8697 45.8692 55.2468 47.3762 55.2468 48.9832C55.2468 49.5621 55.3288 50.1274 55.485 50.6674C54.3503 50.902 53.3096 51.4592 52.4772 52.2932C51.3442 53.4215 50.7194 54.9268 50.7182 56.5319C50.7177 57.1122 50.8001 57.6794 50.9572 58.2208C49.8219 58.4549 48.7805 59.0111 47.9456 59.845C46.8126 60.9768 46.1887 62.4847 46.1887 64.0908C46.1887 65.3213 46.5559 66.4931 47.2366 67.4831C46.3772 67.7745 45.59 68.2593 44.9309 68.9178C42.5917 71.2541 42.5908 75.0604 44.9324 77.4062L45.2121 77.6846L39.4491 83.4371C37.3074 82.4287 34.6686 82.8065 32.9012 84.5716L29.8414 87.6228C28.7531 88.7097 28.154 90.1596 28.1538 91.7053C28.1538 93.2511 28.7531 94.7013 29.8414 95.7884L33.66 99.6023C34.3363 100.278 35.4324 100.277 36.1078 99.6009C36.7835 98.9246 36.7828 97.8285 36.1065 97.1531L32.2879 93.3391C31.8544 92.9062 31.6157 92.3259 31.6157 91.7055C31.6157 91.0852 31.8544 90.5051 32.2869 90.0732L35.3468 87.0219C36.1113 86.2581 37.2814 86.1445 38.17 86.6757C38.2326 86.7697 38.3049 86.8593 38.3878 86.9421C38.5359 87.0908 38.7052 87.2048 38.8852 87.2881L56.4324 104.81C56.5158 104.991 56.6302 105.162 56.7796 105.312C56.925 105.458 57.0909 105.57 57.2669 105.653C57.6379 106.072 57.843 106.608 57.843 107.18C57.843 107.8 57.6042 108.38 57.1708 108.813L54.114 111.867C53.2108 112.766 51.7416 112.766 50.8411 111.869L47.0224 108.05C46.3464 107.374 45.2506 107.374 44.5746 108.05C43.8986 108.726 43.8984 109.822 44.5744 110.498L48.3957 114.32C49.5206 115.44 50.9977 116 52.4753 116C53.9534 116 55.4323 115.439 56.5584 114.318L59.6171 111.263C60.7054 110.176 61.3047 108.726 61.3047 107.18C61.3047 106.076 60.9979 105.023 60.4273 104.114L66.9132 97.6364C66.92 97.6293 66.9271 97.6223 66.934 97.6154C67.6766 96.8476 69.7448 96.9913 71.7449 97.1302C73.166 97.2288 74.7503 97.3388 76.2982 97.1604L83.4008 104.255C82.9407 105.094 82.6951 106.041 82.6951 107.027C82.6951 108.571 83.2944 110.02 84.3827 111.107L87.4416 114.162C88.5292 115.249 89.979 115.847 91.5238 115.847C93.0684 115.847 94.5182 115.249 95.606 114.162L114.158 95.6325C115.247 94.5455 115.846 93.0956 115.846 91.5498C115.846 90.0041 115.247 88.5541 114.158 87.4662ZM68.2223 45.7779L75.731 47.1991L71.2367 51.6918C70.5414 51.3576 69.5886 50.7344 68.5432 49.7345C67.1124 48.3656 66.0887 46.7853 65.9957 45.7996L65.9955 45.798C65.9888 45.7272 65.9871 45.6701 65.988 45.627C66.214 45.572 66.8155 45.511 68.2223 45.7779ZM59.4467 47.1892C60.3237 46.3131 61.6859 46.2121 62.6768 46.8831C63.2383 49.2374 65.2467 51.3712 66.1502 52.2358C66.8198 52.8765 68.9684 54.7976 71.1372 55.3256C71.4306 55.7461 71.5902 56.2475 71.5902 56.7765C71.5902 57.458 71.3281 58.0951 70.8505 58.5723C70.3742 59.0494 69.736 59.312 69.0534 59.312C68.3705 59.312 67.7323 59.0494 67.2538 58.57L67.2528 58.569L59.4466 50.7769C58.9707 50.3016 58.7085 49.6645 58.7085 48.9832C58.7087 48.3017 58.9708 47.6646 59.4467 47.1892ZM54.9237 54.7426C55.3999 54.2656 56.0374 54.0028 56.7191 54.0028C57.4016 54.0028 58.0412 54.2661 58.5205 54.745L64.8063 61.0182C65.7962 62.0096 65.7962 63.6228 64.8098 64.6108C64.3309 65.0877 63.6905 65.3503 63.0066 65.3503C62.3227 65.3503 61.6823 65.0877 61.2055 64.6128L56.4367 59.845C56.4293 59.8376 56.4212 59.8307 56.4137 59.8232L54.9218 58.332C54.4431 57.8538 54.1796 57.2155 54.1802 56.5345C54.1808 55.8558 54.4435 55.2207 54.9237 54.7426ZM50.392 62.2944C50.8686 61.8185 51.5075 61.5564 52.1912 61.5564C52.8693 61.5564 53.5026 61.8147 53.9772 62.2824L58.7604 67.0634C59.2374 67.5385 59.5002 68.1749 59.5002 68.8556C59.5002 69.536 59.2374 70.1725 58.7586 70.6494C58.2821 71.1252 57.6439 71.3873 56.9614 71.3873C56.2779 71.3873 55.6377 71.1245 55.1605 70.6494L53.4265 68.9174L53.4253 68.9162L50.3922 65.8868C49.914 65.4091 49.6507 64.7711 49.6507 64.0905C49.6507 63.41 49.914 62.7719 50.392 62.2944ZM47.3773 71.3672C47.856 70.889 48.4957 70.6257 49.1786 70.6257C49.8611 70.6257 50.5007 70.8888 50.9793 71.3666L52.7158 73.101C53.1927 73.5761 53.4555 74.2126 53.4555 74.8932C53.4555 75.5738 53.1927 76.2101 52.7122 76.6889C52.2359 77.1659 51.5977 77.4287 50.915 77.4287C50.2322 77.4287 49.594 77.166 49.1143 76.6855L48.8969 76.4689C48.894 76.466 48.8917 76.4629 48.889 76.4602C48.8857 76.4571 48.8823 76.4543 48.879 76.4512L47.3791 74.9571C46.3892 73.965 46.3884 72.3548 47.3773 71.3672ZM82.6519 91.0395C81.9763 90.363 80.8802 90.3624 80.2041 91.0379L78.6641 92.5758C77.2007 94.0392 74.5492 93.8549 71.9849 93.6771C69.2003 93.4835 66.3209 93.2838 64.4576 95.1968L58.0819 101.565L42.1382 85.6445L47.7806 80.0123C48.7132 80.584 49.7893 80.8904 50.9152 80.8904C52.5236 80.8904 54.0322 80.2668 55.1588 79.1381C56.293 78.0086 56.9178 76.5011 56.9178 74.893C56.9178 74.8781 56.9167 74.8633 56.9167 74.8483C56.9317 74.8485 56.9467 74.8493 56.9616 74.8493C58.568 74.8493 60.0751 74.2277 61.2033 73.1009C62.3375 71.9713 62.9623 70.4636 62.9623 68.8557C62.9623 68.8408 62.9612 68.826 62.9612 68.811C62.9764 68.811 62.9915 68.8121 63.0068 68.8121C64.6126 68.8121 66.1207 68.1911 67.2564 67.06C68.4355 65.879 69.0186 64.3242 69.0075 62.7727C69.0229 62.7727 69.0384 62.7738 69.0539 62.7738C70.6624 62.7738 72.1707 62.1502 73.299 61.0198C74.4298 59.8904 75.0527 58.3834 75.0527 56.7763C75.0527 55.6526 74.7471 54.5782 74.1773 53.6474L79.1227 48.7041C79.4911 48.3371 79.9456 48.1068 80.4219 48.0118C80.4734 48.0063 80.5243 47.998 80.5746 47.988C81.3388 47.8827 82.1413 48.1183 82.7257 48.7005C83.7155 49.692 83.7155 51.3052 82.7293 52.2932L81.2231 53.7931C81.2182 53.7981 81.2128 53.8026 81.2078 53.8077L79.4733 55.5395C78.7968 56.215 78.7961 57.3111 79.4717 57.9874C80.1475 58.6639 81.2434 58.6644 81.9196 57.9889L83.4317 56.4788L83.4328 56.4778L83.6614 56.2501C84.6539 55.2666 86.262 55.2687 87.2535 56.2588C87.7307 56.7339 87.9935 57.3703 87.9935 58.051C87.9935 58.7314 87.7307 59.3679 87.2498 59.8467L85.735 61.3646L83.9999 63.0928C83.3226 63.7674 83.3204 64.8634 83.995 65.5406C84.6696 66.218 85.7654 66.22 86.4428 65.5456L88.1853 63.8102C88.6615 63.333 89.2997 63.0704 89.9824 63.0704C90.6653 63.0704 91.3036 63.333 91.7833 63.8136C92.2604 64.2888 92.5231 64.9253 92.5231 65.6057C92.5231 66.2862 92.2604 66.9226 91.7806 67.4005L88.7607 70.4215C88.0849 71.0977 88.0851 72.1935 88.7611 72.8694C89.0991 73.2073 89.5419 73.376 89.9848 73.376C90.4279 73.376 90.871 73.2069 91.2089 72.8688L92.6889 71.3883C92.6973 71.3802 92.7064 71.3732 92.7149 71.3648C93.1911 70.8876 93.8293 70.625 94.512 70.625C95.1947 70.625 95.833 70.8876 96.311 71.3665C97.2998 72.3542 97.299 73.9647 96.3112 74.9544L94.8064 76.4574L94.8047 76.459L94.8031 76.4607L92.4148 78.8461C91.7384 79.5218 91.7378 80.6176 92.4132 81.2941C92.7513 81.6326 93.1947 81.8019 93.638 81.8019C94.0808 81.8019 94.5233 81.6331 94.8612 81.2957L96.0295 80.1288L101.629 85.7215L85.6864 101.644L79.9743 95.9391C80.3725 95.683 80.7536 95.3819 81.1112 95.0242L82.6504 93.487C83.3269 92.8118 83.3276 91.7158 82.6519 91.0395ZM111.712 93.1831L93.1599 111.713C92.7259 112.146 92.1449 112.385 91.5241 112.385C90.9033 112.385 90.3224 112.146 89.8882 111.713L86.8294 108.658C86.3959 108.225 86.1572 107.646 86.1572 107.027C86.1572 106.408 86.3959 105.829 86.8294 105.396L105.382 86.866C105.816 86.4324 106.397 86.1936 107.018 86.1936C107.638 86.1936 108.219 86.4323 108.654 86.867L111.712 89.9163C112.146 90.3492 112.384 90.9291 112.384 91.5496C112.384 92.1702 112.146 92.7503 111.712 93.1831Z" fill="#092133"/>
<path d="M48.862 37.7229C49.2 38.0602 49.6424 38.2286 50.0848 38.2286C50.5282 38.2286 50.9718 38.0591 51.3099 37.7204C51.9852 37.0437 51.9842 35.9478 51.3075 35.2725L45 28.9776C44.3235 28.3021 43.2275 28.3032 42.5522 28.98C41.8769 29.6567 41.8779 30.7525 42.5546 31.4278L48.862 37.7229Z" fill="#092133"/>
<path d="M93.6084 38.2288C94.0509 38.2288 94.4937 38.06 94.8316 37.7226L101.134 31.4275C101.811 30.752 101.811 29.656 101.136 28.9797C100.46 28.3032 99.3643 28.3026 98.6878 28.9783L92.3851 35.2734C91.7088 35.9489 91.7081 37.0449 92.3837 37.7212C92.7218 38.0595 93.1651 38.2288 93.6084 38.2288Z" fill="#092133"/>
<path d="M38.7973 102.457C38.1272 103.139 38.1365 104.235 38.8183 104.905L38.8233 104.91C39.1597 105.24 39.5964 105.405 40.033 105.405C40.481 105.405 40.9291 105.232 41.2686 104.886C41.9387 104.205 41.9268 103.106 41.2452 102.436C40.5635 101.766 39.4677 101.775 38.7973 102.457Z" fill="#092133"/>
<path d="M86.8857 88.5459C87.149 88.5459 87.4161 88.4859 87.6669 88.3596C88.5204 87.929 88.8633 86.8882 88.433 86.0346C88.0024 85.1811 86.9614 84.838 86.108 85.2686L86.0984 85.2734C85.2448 85.7039 84.9068 86.7424 85.3371 87.596C85.641 88.1989 86.2522 88.5459 86.8857 88.5459Z" fill="#092133"/>
</svg>
