<svg width="144" height="144" viewBox="0 0 144 144" fill="none" xmlns="http://www.w3.org/2000/svg">
<circle cx="72" cy="72" r="72" fill="#D5EDFF" fill-opacity="0.76"/>
<path d="M93.3926 67.8035C94.3162 67.7264 95.2328 67.58 96.1345 67.3655C95.4441 67.2028 94.7636 67.0003 94.0966 66.7592C93.8728 67.1163 93.6356 67.4625 93.3926 67.8035Z" fill="#2FA6FF"/>
<path d="M48.1929 112.234C48.1921 110.592 48.8425 109.017 50.0014 107.854C51.1604 106.691 52.7333 106.035 54.3752 106.029V96.273C54.3754 91.727 55.8153 87.2979 58.4884 83.6209C61.1616 79.9439 64.9307 77.208 69.255 75.8057C60.6487 73.029 54.3752 64.9509 54.3752 55.4288V45.5818C52.7307 45.5713 51.1571 44.9102 49.9986 43.7429C48.8401 42.5756 48.1909 40.9971 48.1929 39.3525C48.1914 39.0786 48.2986 38.8154 48.491 38.6204C48.6833 38.4255 48.9451 38.3147 49.219 38.3125H40.6252C40.3514 38.3147 40.0896 38.4255 39.8972 38.6204C39.7049 38.8154 39.5977 39.0786 39.5991 39.3525C39.5971 40.9971 40.2464 42.5756 41.4049 43.7429C42.5634 44.9102 44.1369 45.5713 45.7815 45.5818V55.4288C45.7815 64.9507 52.0549 73.0288 60.6612 75.8057C56.3369 77.208 52.5679 79.9439 49.8947 83.6209C47.2215 87.2979 45.7816 91.727 45.7815 96.273V106.029C44.1395 106.034 42.5666 106.69 41.4077 107.853C40.2487 109.016 39.5984 110.592 39.5991 112.234C39.5988 112.368 39.6252 112.501 39.6768 112.625C39.7283 112.749 39.8041 112.862 39.8995 112.956C39.995 113.051 40.1083 113.126 40.2329 113.176C40.3575 113.226 40.4908 113.252 40.6252 113.25H49.219C49.0846 113.252 48.9513 113.226 48.8268 113.176C48.7022 113.126 48.5889 113.051 48.4935 112.957C48.398 112.862 48.3223 112.75 48.2707 112.625C48.2191 112.501 48.1926 112.368 48.1929 112.234Z" fill="#2FA6FF"/>
<path d="M102.751 42.2988L92.4359 36.3449C92.2527 36.2392 92.045 36.1836 91.8335 36.1836C91.6221 36.1836 91.4144 36.2392 91.2312 36.3449L80.9242 42.2988C80.742 42.4047 80.5909 42.5567 80.4862 42.7397C80.3816 42.9226 80.3271 43.1299 80.3281 43.3407V55.2485C80.3269 55.4592 80.3813 55.6665 80.4858 55.8494C80.5903 56.0324 80.7412 56.1845 80.9234 56.2904L91.2328 62.2444C91.4152 62.35 91.6223 62.4056 91.8331 62.4056C92.0439 62.4056 92.251 62.35 92.4335 62.2444L102.752 56.2906C102.936 56.1853 103.088 56.0336 103.195 55.8508C103.302 55.6679 103.358 55.4602 103.359 55.2485V43.3407C103.358 43.129 103.301 42.9213 103.195 42.7385C103.088 42.5556 102.935 42.404 102.751 42.2988ZM91.8312 47.9045L88.98 46.2584L96.8862 41.6941L99.7375 43.3403L91.8312 47.9045ZM91.8312 38.776L94.4793 40.3049L86.5731 44.8692L83.925 43.3403L91.8312 38.776ZM82.7344 45.4236L90.6406 49.9883V59.1185L82.7344 54.5547V45.4236ZM93.0469 59.1185V49.9883L100.953 45.4236V54.5547L93.0469 59.1185Z" fill="#092133"/>
<path d="M45.6096 96.273V105.861C43.9535 105.913 42.3825 106.607 41.2288 107.797C40.0751 108.986 39.429 110.577 39.4273 112.234C39.427 112.391 39.4579 112.546 39.5181 112.691C39.5784 112.836 39.6668 112.968 39.7782 113.078C39.8896 113.189 40.0219 113.276 40.1673 113.335C40.3127 113.394 40.4683 113.423 40.6252 113.422H93.9146C94.0712 113.423 94.2267 113.394 94.3718 113.335C94.517 113.276 94.6489 113.188 94.76 113.078C94.8711 112.967 94.9591 112.836 95.0189 112.691C95.0787 112.546 95.1091 112.391 95.1084 112.234C95.1058 110.577 94.4589 108.985 93.3045 107.796C92.1501 106.607 90.5786 105.913 88.9221 105.861V96.1814C88.9221 86.7592 82.8367 78.7401 74.4091 75.801C79.3527 74.0777 83.5071 70.6263 86.1073 66.0823L84.0197 64.878C82.3412 67.8182 79.9165 70.2634 76.9905 71.9666C74.0646 73.6697 70.741 74.5706 67.3554 74.5781H67.2179C64.7039 74.5924 62.212 74.1088 59.8859 73.1552C57.5597 72.2016 55.4454 70.7969 53.6649 69.0221C51.5473 66.9129 49.944 64.3444 48.9792 61.5156H78.094V59.1094H48.3538C48.1276 57.8925 48.0145 56.6574 48.0159 55.4197V45.7031H74.9368C75.2559 45.7031 75.5619 45.5764 75.7875 45.3507C76.0132 45.1251 76.1399 44.8191 76.1399 44.5C76.1399 44.1809 76.0132 43.8749 75.7875 43.6493C75.5619 43.4236 75.2559 43.2969 74.9368 43.2969H45.8159C44.975 43.29 44.1572 43.0216 43.4758 42.5288C42.7945 42.036 42.2835 41.3433 42.0138 40.5469H77.3697C77.6888 40.5469 77.9948 40.4201 78.2204 40.1945C78.4461 39.9689 78.5728 39.6628 78.5728 39.3438C78.5728 39.0247 78.4461 38.7186 78.2204 38.493C77.9948 38.2674 77.6888 38.1406 77.3697 38.1406H40.6252C40.3058 38.1428 40.0002 38.2716 39.7756 38.4988C39.551 38.726 39.4257 39.0331 39.4273 39.3525C39.4281 41.012 40.0732 42.6064 41.2264 43.7996C42.3797 44.9929 43.9511 45.6919 45.6096 45.7494V55.4292C45.6208 59.9051 47.0186 64.2675 49.6107 67.9165C52.2027 71.5654 55.8618 74.3216 60.0844 75.8058C55.8472 77.2952 52.1779 80.0652 49.5845 83.7321C46.9911 87.3991 45.6021 91.7817 45.6096 96.273ZM92.526 111.016H42.0138C42.2835 110.219 42.7945 109.527 43.4759 109.034C44.1572 108.541 44.975 108.272 45.8159 108.266H88.7243C89.565 108.273 90.3828 108.541 91.0641 109.034C91.7453 109.527 92.2562 110.219 92.526 111.016ZM54.8714 105.859L62.9614 97.6747C64.0416 96.5849 65.5098 95.968 67.0442 95.9593C68.5786 95.9505 70.0538 96.5507 71.1463 97.6281L79.284 105.859H54.8714ZM67.1844 76.9844H67.3219C77.897 76.9844 86.5158 85.6051 86.5158 96.1842V105.859H82.6676L72.9033 95.9819L72.8386 95.9162C71.2917 94.3908 69.2029 93.5413 67.0305 93.5539C64.8581 93.5665 62.7793 94.4402 61.2502 95.9834L51.4877 105.859H48.0159V96.2703C48.0015 91.1713 50.0127 86.2753 53.6072 82.6588C57.2018 79.0422 62.0854 77.0012 67.1844 76.9844Z" fill="#092133"/>
<path d="M91.8313 30.5475C88.1235 30.5475 84.4989 31.6469 81.416 33.7068C78.333 35.7667 75.9301 38.6946 74.5111 42.1201C73.0922 45.5456 72.7209 49.315 73.4441 52.9516C74.1674 56.5882 75.9528 59.9286 78.5746 62.5505C81.1963 65.1723 84.5367 66.9579 88.1732 67.6814C91.8098 68.4048 95.5792 68.0337 99.0048 66.6148C102.43 65.196 105.358 62.7933 107.418 59.7104C109.478 56.6276 110.578 53.0031 110.578 49.2953C110.573 44.3249 108.596 39.5597 105.081 36.045C101.567 32.5304 96.8016 30.5533 91.8313 30.5475ZM91.8313 65.6353C88.5993 65.6353 85.4399 64.6769 82.7526 62.8813C80.0654 61.0858 77.9709 58.5336 76.7341 55.5477C75.4973 52.5618 75.1737 49.2761 75.8043 46.1063C76.4348 42.9364 77.9912 40.0247 80.2766 37.7394C82.562 35.4542 85.4737 33.8979 88.6436 33.2675C91.8135 32.637 95.0991 32.9607 98.085 34.1977C101.071 35.4346 103.623 37.5292 105.418 40.2165C107.214 42.9039 108.172 46.0633 108.172 49.2953C108.167 53.6275 106.444 57.7807 103.38 60.844C100.317 63.9073 96.1634 65.6303 91.8313 65.6353Z" fill="#092133"/>
</svg>
