<svg width="45" height="45" viewBox="0 0 45 45" fill="none" xmlns="http://www.w3.org/2000/svg">
<g clip-path="url(#clip0)">
<path d="M32.534 18.113C33.51 17.42 34.331 16.555 35 15.559V15.558C34.107 15.949 33.157 16.209 32.165 16.335C33.185 15.726 33.964 14.769 34.33 13.616C33.379 14.183 32.329 14.583 31.21 14.807C30.307 13.845 29.02 13.25 27.616 13.25C24.892 13.25 22.699 15.461 22.699 18.171C22.699 18.561 22.732 18.936 22.813 19.293C18.723 19.093 15.103 17.133 12.671 14.146C12.247 14.883 11.997 15.726 11.997 16.633C11.997 18.337 12.874 19.847 14.183 20.722C13.392 20.707 12.617 20.477 11.96 20.116V20.17C11.96 22.561 13.665 24.547 15.902 25.005C15.501 25.115 15.065 25.167 14.612 25.167C14.297 25.167 13.979 25.149 13.681 25.083C14.318 27.031 16.128 28.464 18.278 28.511C16.604 29.82 14.478 30.609 12.177 30.609C11.774 30.609 11.387 30.591 11 30.542C13.18 31.947 15.762 32.75 18.548 32.75C27.231 32.75 32.89 25.506 32.534 18.113Z" fill="white"/>
</g>
<circle cx="22.5" cy="22.5" r="21.5" stroke="white" stroke-width="2"/>
<defs>
<clipPath id="clip0">
<rect width="24" height="24" fill="white" transform="translate(11 11)"/>
</clipPath>
</defs>
</svg>
