<svg width="54" height="48" viewBox="0 0 54 48" fill="none" xmlns="http://www.w3.org/2000/svg">
<path d="M54 48L16 48C7.16344 48 0 40.8366 0 32L0 16C0 7.16344 7.16344 0 16 0L54 0L54 48Z" fill="#F3FAFF"/>
<path d="M33.3636 30.364C33.7541 29.9734 33.7541 29.3403 33.3636 28.9497L28.4145 24.0007L33.365 19.0502C33.7555 18.6597 33.7555 18.0266 33.3649 17.636C32.9744 17.2455 32.3413 17.2455 31.9507 17.636L27.0003 22.5865L22.0499 17.636C21.6594 17.2455 21.0262 17.2455 20.6357 17.636C20.2451 18.0266 20.2451 18.6597 20.6357 19.0502L25.5861 24.0007L20.637 28.9497C20.2465 29.3403 20.2465 29.9734 20.637 30.364C21.0275 30.7545 21.6607 30.7545 22.0512 30.364L27.0003 25.4149L31.9494 30.364C32.3399 30.7545 32.9731 30.7545 33.3636 30.364Z" fill="#040921"/>
</svg>
